<?xml version="1.0" encoding="utf-8"?>
<!-- Generator: Adobe Illustrator 17.1.0, SVG Export Plug-In . SVG Version: 6.00 Build 0)  -->
<!DOCTYPE svg PUBLIC "-//W3C//DTD SVG 1.1//EN" "http://www.w3.org/Graphics/SVG/1.1/DTD/svg11.dtd">
<svg version="1.1" id="Layer_1" xmlns="http://www.w3.org/2000/svg" xmlns:xlink="http://www.w3.org/1999/xlink" x="0px" y="0px"
	 viewBox="0 0 652 250" enable-background="new 0 0 652 250" xml:space="preserve">
<g id="LOWIMG">
	<g id="LOCATION">
		<g id="TREES">
			<g>
				<rect x="176.5" y="69" fill="#D7E1F2" width="18" height="128"/>
				<polygon fill="#D7E1F2" points="186.5,171 129.4,171 163,137 129.4,137 163.8,99.2 129.5,99.2 186.5,53.4 				"/>
				<polygon fill="#D7E1F2" points="185.5,171 242.5,171 208.8,137 242.5,137 208.1,99.2 242.5,99.2 185.5,53.4 				"/>
			</g>
			<g>
				<rect x="81.5" y="65" fill="#D7E1F2" width="56" height="111"/>
				<rect x="102.5" y="96" fill="#D7E1F2" width="13" height="101"/>
			</g>
			<g>
				<rect x="117.5" y="87" fill="#3C4E81" width="75" height="85"/>
				<rect x="152.5" y="161" fill="#3C4E81" width="18" height="36"/>
				<rect x="167.5" y="80" fill="#3C4E81" width="40" height="41"/>
				<rect x="161.5" y="141" fill="#3C4E81" width="40" height="41"/>
				<rect x="127.5" y="90" fill="#3C4E81" width="65" height="91"/>
				<rect x="96.5" y="107" fill="#3C4E81" width="34" height="32"/>
			</g>
		</g>
		<g id="BUS">
			<rect x="28.5" y="146" fill="#3C4E81" width="87" height="45"/>
			<rect x="40.5" y="186" fill="#3C4E81" width="10" height="11"/>
			<rect x="92.5" y="186" fill="#3C4E81" width="11" height="11"/>
			<polyline fill="#FEDD10" points="159.5,197 127,197 116.7,184.6 			"/>
			<rect x="96.5" y="153" fill="#FEDD10" width="16" height="22"/>
			<rect x="68.5" y="153" fill="#FEDD10" width="12" height="22"/>
			<rect x="39.5" y="153" fill="#FEDD10" width="12" height="22"/>
		</g>
	</g>
	<g id="STAGE">
		<polyline fill="#D7E1F2" points="640.9,65 596.8,54 564.8,175 		"/>
		<rect x="438.5" y="125" fill="#3C4E81" width="126" height="72"/>
		<rect x="424.5" y="175" fill="#3C4E81" width="156" height="22"/>
		<polyline fill="#FFD10A" points="362,65 406.1,54 438.1,175 		"/>
		<path fill="#D7E1F2" d="M439.7,175"/>
		<path fill="#D7E1F2" d="M510.8,84"/>
		<polyline fill="#D7E1F2" points="507.6,83.4 438.4,54 438.5,174.5 		"/>
		<polyline fill="#FFD10A" points="495.7,83.4 564.5,54 564.7,174.5 		"/>
		<polygon fill="#FFD10A" points="472.5,161 501.5,161 501.5,175 482.3,175 		"/>
		<polyline fill="#FFD10A" points="501.5,161 501.5,175 520.7,175 530.5,161 		"/>
	</g>
	<g id="CAMP_1_">
		<g>
			<polygon fill="#3C4E81" points="371.6,197 319.5,197 335,161.9 353.8,162 			"/>
			<rect x="335.5" y="181" fill="#FFD10A" width="18" height="16"/>
		</g>
		<g>
			<polygon fill="#3C4E81" points="304.9,197 264.5,197 276.6,169.8 291.2,169.8 			"/>
			<rect x="276.5" y="185" fill="#FFD10A" width="14" height="12"/>
		</g>
		<g>
			<polygon fill="#3C4E81" points="347,197 285.1,197 303.6,155.3 326,155.4 			"/>
			<rect x="304.5" y="178" fill="#FFD10A" width="21" height="19"/>
		</g>
	</g>
</g>
</svg>
